HIERARCHY
ROOT Hips
{
    OFFSET 0.000000 0.000000 0.000000
    CHANNELS 6 Xposition Yposition Zposition Zrotation Yrotation Xrotation
    JOINT Chest
    {
        OFFSET 0.000000 1.634758 -0.000000
        CHANNELS 3 Zrotation Yrotation Xrotation
        JOINT Chest2
        {
            OFFSET 0.000000 2.197341 0.000000
            CHANNELS 3 Zrotation Yrotation Xrotation
            JOINT Neck
            {
                OFFSET 0.000000 0.961544 0.000000
                CHANNELS 3 Zrotation Yrotation Xrotation
                JOINT Head
                {
                    OFFSET 0.000000 0.632542 -0.032565
                    CHANNELS 3 Zrotation Yrotation Xrotation
                    End Site
                    {
                        OFFSET -0.000001 0.439502 2.922845
                    }
                }
            }
            JOINT LeftCollar
            {
                OFFSET 0.167536 0.778237 -0.168280
                CHANNELS 3 Zrotation Yrotation Xrotation
                JOINT LeftShoulder
                {
                    OFFSET 0.831514 -0.002900 0.006458
                    CHANNELS 3 Zrotation Yrotation Xrotation
                    JOINT LeftElbow
                    {
                        OFFSET 2.272872 -0.026639 0.059314
                        CHANNELS 3 Zrotation Yrotation Xrotation
                        JOINT LeftWrist
                        {
                            OFFSET 2.081982 -0.024402 0.054333
                            CHANNELS 3 Zrotation Yrotation Xrotation
                            JOINT LeftHandThumb1
                            {
                                OFFSET 0.218903 -0.128645 0.283837
                                CHANNELS 3 Zrotation Yrotation Xrotation
                                JOINT LeftHandThumb2
                                {
                                    OFFSET 0.137157 -0.025101 0.077902
                                    CHANNELS 3 Zrotation Yrotation Xrotation
                                    JOINT LeftHandThumb3
                                    {
                                        OFFSET 0.165861 -0.067014 0.039226
                                        CHANNELS 3 Zrotation Yrotation Xrotation
                                        End Site
                                        {
                                            OFFSET 0.241157 -0.045065 0.107930
                                        }
                                    }
                                }
                            }
                            JOINT LeftHandFore1
                            {
                                OFFSET 0.767340 -0.016076 0.196678
                                CHANNELS 3 Zrotation Yrotation Xrotation
                                JOINT LeftHandFore2
                                {
                                    OFFSET 0.215173 -0.024035 0.010864
                                    CHANNELS 3 Zrotation Yrotation Xrotation
                                    JOINT LeftHandFore3
                                    {
                                        OFFSET 0.127998 -0.018363 0.006493
                                        CHANNELS 3 Zrotation Yrotation Xrotation
                                        End Site
                                        {
                                            OFFSET 0.191872 -0.022849 0.005461
                                        }
                                    }
                                }
                            }
                            JOINT LeftHandMiddle1
                            {
                                OFFSET 0.709887 -0.008320 0.018526
                                CHANNELS 3 Zrotation Yrotation Xrotation
                                JOINT LeftHandMiddle2
                                {
                                    OFFSET 0.243305 -0.028680 0.006624
                                    CHANNELS 3 Zrotation Yrotation Xrotation
                                    JOINT LeftHandMiddle3
                                    {
                                        OFFSET 0.145223 -0.016669 0.003951
                                        CHANNELS 3 Zrotation Yrotation Xrotation
                                        End Site
                                        {
                                            OFFSET 0.233621 -0.031666 0.006995
                                        }
                                    }
                                }
                            }
                            JOINT LeftHandRing1
                            {
                                OFFSET 0.743817 -0.005823 -0.153668
                                CHANNELS 3 Zrotation Yrotation Xrotation
                                JOINT LeftHandRing2
                                {
                                    OFFSET 0.349394 -0.050632 -0.009675
                                    CHANNELS 3 Zrotation Yrotation Xrotation
                                    JOINT LeftHandRing3
                                    {
                                        OFFSET 0.134332 -0.023631 0.001421
                                        CHANNELS 3 Zrotation Yrotation Xrotation
                                        End Site
                                        {
                                            OFFSET 0.116893 -0.027460 0.001278
                                        }
                                    }
                                }
                            }
                            JOINT LeftHandLittle1
                            {
                                OFFSET 0.689408 -0.053302 -0.308304
                                CHANNELS 3 Zrotation Yrotation Xrotation
                                JOINT LeftHandLittle2
                                {
                                    OFFSET 0.193251 -0.018757 -0.018874
                                    CHANNELS 3 Zrotation Yrotation Xrotation
                                    JOINT LeftHandLittle3
                                    {
                                        OFFSET 0.116994 -0.025997 -0.011519
                                        CHANNELS 3 Zrotation Yrotation Xrotation
                                        End Site
                                        {
                                            OFFSET 0.189726 -0.012367 -0.011818
                                        }
                                    }
                                }
                            }
                        }
                    }
                }
            }
            JOINT RightCollar
            {
                OFFSET -0.167536 0.778237 -0.168280
                CHANNELS 3 Zrotation Yrotation Xrotation
                JOINT RightShoulder
                {
                    OFFSET -0.831514 -0.002900 0.006457
                    CHANNELS 3 Zrotation Yrotation Xrotation
                    JOINT RightElbow
                    {
                        OFFSET -2.272872 -0.026639 0.059313
                        CHANNELS 3 Zrotation Yrotation Xrotation
                        JOINT RightWrist
                        {
                            OFFSET -2.081982 -0.024402 0.054331
                            CHANNELS 3 Zrotation Yrotation Xrotation
                            JOINT RightHandThumb1
                            {
                                OFFSET -0.218911 -0.128571 0.283837
                                CHANNELS 3 Zrotation Yrotation Xrotation
                                JOINT RightHandThumb2
                                {
                                    OFFSET -0.137157 -0.025101 0.077902
                                    CHANNELS 3 Zrotation Yrotation Xrotation
                                    JOINT RightHandThumb3
                                    {
                                        OFFSET -0.165861 -0.067014 0.039226
                                        CHANNELS 3 Zrotation Yrotation Xrotation
                                        End Site
                                        {
                                            OFFSET -0.229436 -0.065997 0.121819
                                        }
                                    }
                                }
                            }
                            JOINT RightHandFore1
                            {
                                OFFSET -0.767344 -0.015991 0.196679
                                CHANNELS 3 Zrotation Yrotation Xrotation
                                JOINT RightHandFore2
                                {
                                    OFFSET -0.215182 -0.023988 0.010864
                                    CHANNELS 3 Zrotation Yrotation Xrotation
                                    JOINT RightHandFore3
                                    {
                                        OFFSET -0.127999 -0.018333 0.006493
                                        CHANNELS 3 Zrotation Yrotation Xrotation
                                        End Site
                                        {
                                            OFFSET -0.191454 -0.022769 0.013914
                                        }
                                    }
                                }
                            }
                            JOINT RightHandMiddle1
                            {
                                OFFSET -0.709887 -0.008302 0.018525
                                CHANNELS 3 Zrotation Yrotation Xrotation
                                JOINT RightHandMiddle2
                                {
                                    OFFSET -0.243299 -0.028703 0.006624
                                    CHANNELS 3 Zrotation Yrotation Xrotation
                                    JOINT RightHandMiddle3
                                    {
                                        OFFSET -0.145226 -0.016685 0.003951
                                        CHANNELS 3 Zrotation Yrotation Xrotation
                                        End Site
                                        {
                                            OFFSET -0.233653 -0.031672 0.005780
                                        }
                                    }
                                }
                            }
                            JOINT RightHandRing1
                            {
                                OFFSET -0.743819 -0.005785 -0.153669
                                CHANNELS 3 Zrotation Yrotation Xrotation
                                JOINT RightHandRing2
                                {
                                    OFFSET -0.349398 -0.050607 -0.009675
                                    CHANNELS 3 Zrotation Yrotation Xrotation
                                    JOINT RightHandRing3
                                    {
                                        OFFSET -0.134041 -0.023657 -0.008853
                                        CHANNELS 3 Zrotation Yrotation Xrotation
                                        End Site
                                        {
                                            OFFSET -0.116640 -0.027483 -0.007747
                                        }
                                    }
                                }
                            }
                            JOINT RightHandLittle1
                            {
                                OFFSET -0.689403 -0.053298 -0.308303
                                CHANNELS 3 Zrotation Yrotation Xrotation
                                JOINT RightHandLittle2
                                {
                                    OFFSET -0.193254 -0.018751 -0.018875
                                    CHANNELS 3 Zrotation Yrotation Xrotation
                                    JOINT RightHandLittle3
                                    {
                                        OFFSET -0.116992 -0.025993 -0.011520
                                        CHANNELS 3 Zrotation Yrotation Xrotation
                                        End Site
                                        {
                                            OFFSET -0.188440 -0.012318 -0.025042
                                        }
                                    }
                                }
                            }
                        }
                    }
                }
            }
        }
    }
    JOINT LeftHip
    {
        OFFSET 0.685143 0.673822 -0.044491
        CHANNELS 3 Zrotation Yrotation Xrotation
        JOINT LeftKnee
        {
            OFFSET 0.085364 -3.750208 0.017676
            CHANNELS 3 Zrotation Yrotation Xrotation
            JOINT LeftAnkle
            {
                OFFSET 0.094583 -4.155206 0.019585
                CHANNELS 3 Zrotation Yrotation Xrotation
                JOINT LeftToe
                {
                    OFFSET -0.000000 -0.395925 0.621478
                    CHANNELS 3 Zrotation Yrotation Xrotation
                    End Site
                    {
                        OFFSET -0.000000 -0.077878 0.321152
                    }
                }
            }
        }
    }
    JOINT RightHip
    {
        OFFSET -0.685143 0.673822 -0.044492
        CHANNELS 3 Zrotation Yrotation Xrotation
        JOINT RightKnee
        {
            OFFSET -0.085364 -3.750208 0.017677
            CHANNELS 3 Zrotation Yrotation Xrotation
            JOINT RightAnkle
            {
                OFFSET -0.094583 -4.155206 0.019585
                CHANNELS 3 Zrotation Yrotation Xrotation
                JOINT RightToe
                {
                    OFFSET -0.000000 -0.395925 0.621478
                    CHANNELS 3 Zrotation Yrotation Xrotation
                    End Site
                    {
                        OFFSET -0.000000 -0.077878 0.321152
                    }
                }
            }
        }
    }
}
MOTION
Frames: 4
Frame Time: 0.033333
-7.459421 9.033191 -11.957171 -30.883472 64.614548 -56.936649 24.594845 9.547816 10.343534 4.558689 -1.858296 -2.283721 -25.445356 21.079809 0.101412 -2.341287 38.432098 3.537833 -2.559537 -8.654427 -0.130369 -42.708576 -21.426916 -10.700514 7.495567 -85.294281 -8.143137 31.494345 5.159484 -10.250734 -0.000008 0.000001 -0.000002 -7.648212 19.649574 1.358787 -3.227007 41.103348 17.940014 -80.512825 4.783769 -0.683780 -78.902481 5.043454 0.651841 -87.178398 7.351572 3.045273 -82.070602 7.600108 1.933008 -92.528564 6.995048 1.305356 -91.436340 6.445256 0.998113 -83.318825 13.553315 7.575055 -93.237938 9.862638 3.301535 -90.478569 11.724440 4.919937 -83.616280 13.697614 8.879004 -54.169003 6.758037 4.600725 -98.670654 10.060918 5.912790 -0.820027 12.606297 -0.066966 29.024456 28.935343 -18.575270 -165.753067 87.154083 -166.444611 -28.674726 -2.421351 -7.397633 0.000006 0.000000 -0.000007 10.830224 -11.581770 13.071189 31.724600 -28.037708 10.726933 80.512802 -4.784900 -0.683707 78.955360 1.303743 5.629722 87.656792 2.785512 3.490772 82.070709 -7.599599 1.932561 92.806503 4.551547 2.503980 91.669212 4.061632 2.794595 83.318848 -13.552927 7.575555 92.313438 13.168676 -6.597068 89.354782 14.862228 -8.274285 83.616203 -13.697597 8.879417 51.074013 10.407624 -14.100325 93.052879 21.366573 -18.902235 31.370998 -3.393834 -20.952044 0.860559 1.226253 70.117508 1.851911 5.000688 -16.944508 -0.000007 -0.000029 -0.000013 7.771522 -4.385323 26.485538 -0.109105 -0.522209 23.604292 10.566352 26.706884 -10.934914 0.000002 0.000012 -0.000002
-7.300839 9.029929 -12.102934 -15.684143 63.291397 -43.564758 21.421438 13.544443 10.498016 5.396331 -2.452556 -3.195125 -20.022547 22.712185 0.463766 -2.488355 40.141487 4.241817 -5.350359 -7.745351 -0.297652 -42.814522 -16.711250 -7.030688 1.042136 -67.051582 -1.580222 27.878208 4.618420 -10.626561 -0.000015 0.000001 -0.000007 -7.648214 19.649574 1.358792 -3.227019 41.103348 17.940023 -80.512833 4.783779 -0.683772 -78.902481 5.043458 0.651836 -87.178406 7.351574 3.045272 -82.070610 7.600114 1.933019 -92.528564 6.995043 1.305355 -91.436340 6.445258 0.998116 -83.318832 13.553318 7.575057 -93.237946 9.862637 3.301533 -90.478577 11.724433 4.919933 -83.616287 13.697617 8.879007 -54.168999 6.758039 4.600725 -98.670654 10.060923 5.912788 1.551881 13.302462 0.038508 20.850965 17.712662 -9.775256 -1.524608 72.288673 -2.094551 -24.772787 -2.506722 -12.224227 -0.000001 -0.000003 0.000000 10.830219 -11.581767 13.071188 31.724609 -28.037708 10.726937 80.512794 -4.784909 -0.683716 78.955360 1.303746 5.629722 87.656792 2.785519 3.490767 82.070694 -7.599614 1.932552 92.806503 4.551544 2.503985 91.669212 4.061639 2.794591 83.318832 -13.552937 7.575550 92.313431 13.168677 -6.597075 89.354774 14.862227 -8.274287 83.616188 -13.697596 8.879407 51.074020 10.407626 -14.100333 93.052879 21.366573 -18.902239 26.887318 -2.471567 -12.009772 0.677802 1.143788 61.298195 3.056156 7.753398 -15.284215 0.000003 -0.000000 -0.000006 0.577520 -1.478695 28.150835 -0.099396 -0.499401 22.515135 13.649076 30.522749 -7.739291 0.000000 0.000019 -0.000001
-7.150017 9.037342 -12.239823 -2.041569 60.136627 -32.018497 18.332241 17.991570 10.615600 6.016881 -3.088993 -3.923189 -15.984765 24.252480 0.461442 -2.640257 41.820995 4.198910 -7.307024 -6.008664 -0.483609 -37.463600 -16.492130 -1.608324 0.238735 -42.695686 -0.618176 21.705214 3.962989 -10.857891 -0.000002 -0.000005 -0.000007 -7.648214 19.649574 1.358787 -3.227012 41.103352 17.940012 -80.512833 4.783774 -0.683778 -78.902481 5.043460 0.651836 -87.178406 7.351574 3.045266 -82.070602 7.600116 1.933011 -92.528564 6.995044 1.305353 -91.436340 6.445252 0.998114 -83.318825 13.553329 7.575064 -93.237946 9.862634 3.301538 -90.478577 11.724439 4.919939 -83.616280 13.697633 8.879004 -54.168999 6.758037 4.600726 -98.670654 10.060917 5.912786 2.377235 11.763291 0.117331 12.241358 6.209280 -0.516518 -0.684970 60.482910 -1.182242 -20.868685 -2.578087 -17.055115 0.000001 -0.000005 0.000007 10.830223 -11.581771 13.071190 31.724609 -28.037710 10.726933 80.512794 -4.784907 -0.683719 78.955360 1.303746 5.629727 87.656792 2.785524 3.490776 82.070686 -7.599609 1.932555 92.806503 4.551547 2.503982 91.669212 4.061633 2.794590 83.318817 -13.552930 7.575546 92.313438 13.168681 -6.597075 89.354782 14.862228 -8.274282 83.616188 -13.697592 8.879410 51.074020 10.407620 -14.100333 93.052879 21.366570 -18.902239 20.297197 -1.423662 2.244934 0.345682 0.884334 42.697464 6.777495 11.597638 -7.573329 0.000000 -0.000003 -0.000002 -6.822808 1.636039 29.385618 -0.081072 -0.452670 20.309717 17.794436 34.184669 -3.438802 0.000003 0.000012 0.000002
-7.008595 9.053978 -12.379430 9.445553 56.370914 -22.771420 14.787987 22.111933 10.461056 6.031905 -3.649400 -4.445943 -13.070796 25.600851 0.214218 -2.815514 43.654636 3.605044 -7.793464 -3.421607 -0.587467 -31.673838 -16.577562 2.971654 0.048169 -21.375143 -0.262525 13.560454 3.124949 -7.931228 -0.000010 0.000002 -0.000003 -7.648214 19.649570 1.358789 -3.227013 41.103348 17.940014 -80.512825 4.783768 -0.683776 -78.902473 5.043459 0.651838 -87.178413 7.351570 3.045268 -82.070602 7.600106 1.933002 -92.528572 6.995043 1.305354 -91.436348 6.445252 0.998118 -83.318825 13.553316 7.575045 -93.237946 9.862639 3.301537 -90.478569 11.724439 4.919937 -83.616280 13.697611 8.878989 -54.168995 6.758038 4.600727 -98.670654 10.060918 5.912790 2.146569 9.876329 0.134247 8.452519 0.990915 0.725806 -0.260749 44.147247 -0.650311 -11.604545 -2.616226 -10.479521 0.000009 0.000005 -0.000002 10.830219 -11.581768 13.071188 31.724609 -28.037708 10.726937 80.512794 -4.784902 -0.683707 78.955360 1.303746 5.629727 87.656792 2.785517 3.490772 82.070702 -7.599611 1.932560 92.806503 4.551550 2.503979 91.669212 4.061635 2.794595 83.318825 -13.552935 7.575553 92.313438 13.168673 -6.597068 89.354774 14.862227 -8.274283 83.616196 -13.697598 8.879417 51.074020 10.407622 -14.100333 93.052879 21.366577 -18.902239 12.104999 -0.364603 19.708351 0.048649 0.352857 15.697493 13.086243 14.226431 8.091445 0.000003 0.000011 0.000015 -14.513770 4.592522 30.013016 -0.058218 -0.385337 17.185255 22.641523 36.983761 1.613538 -0.000005 -0.000012 0.000008
